<svg width="32" height="31" viewBox="0 0 32 31" fill="none" xmlns="http://www.w3.org/2000/svg">
<path fill-rule="evenodd" clip-rule="evenodd" d="M22.2339 8.17249H26.0058C27.4015 8.17249 28.5205 9.29149 28.5205 10.6871V24.5175C28.5205 25.9131 27.4015 27.0321 26.0058 27.0321H5.88889C4.49327 27.0321 3.37427 25.9131 3.37427 24.5175V10.6871C3.37427 9.29149 4.49327 8.17249 5.88889 8.17249H9.66082V5.65787C9.66082 4.26226 10.7798 3.14325 12.1754 3.14325H19.7193C21.1149 3.14325 22.2339 4.26226 22.2339 5.65787V8.17249ZM19.7193 5.65788H12.1755V8.1725H19.7193V5.65788ZM26.0058 24.5175H5.88887V22.0029H26.0058V24.5175ZM5.88887 18.231H26.0058V10.6871H22.2339V13.2017H19.7193V10.6871H12.1754V13.2017H9.6608V10.6871H5.88887V18.231Z" fill="#F2F2F2"/>
</svg>
