<svg width="21" height="21" viewBox="0 0 21 21" fill="none" xmlns="http://www.w3.org/2000/svg">
<path fill-rule="evenodd" clip-rule="evenodd" d="M10.5673 0C7.78868 0 5.53809 2.25058 5.53809 5.02924C5.53809 7.80789 7.78868 10.0585 10.5673 10.0585C13.346 10.0585 15.5966 7.80789 15.5966 5.02924C15.5966 2.25058 13.346 0 10.5673 0ZM13.0819 5.02927C13.0819 3.64623 11.9503 2.51465 10.5673 2.51465C9.18423 2.51465 8.05265 3.64623 8.05265 5.02927C8.05265 6.41231 9.18423 7.54389 10.5673 7.54389C11.9503 7.54389 13.0819 6.41231 13.0819 5.02927ZM18.1111 17.6023C17.8596 16.7096 13.9619 15.0877 10.5672 15.0877C7.18504 15.0877 3.31253 16.6971 3.02335 17.6023H18.1111ZM0.508789 17.6023C0.508789 14.2579 7.21025 12.5731 10.5673 12.5731C13.9243 12.5731 20.6257 14.2579 20.6257 17.6023V20.1169H0.508789V17.6023Z" fill="#2F80ED"/>
</svg>
